<?xml version="1.0" standalone="no"?>
<!DOCTYPE svg PUBLIC "-//W3C//DTD SVG 20010904//EN"
 "http://www.w3.org/TR/2001/REC-SVG-20010904/DTD/svg10.dtd">
<svg version="1.0" xmlns="http://www.w3.org/2000/svg"
 width="566.000000pt" height="148.000000pt" viewBox="0 0 566.000000 148.000000"
 preserveAspectRatio="xMidYMid meet">
<metadata>
Created by potrace 1.12, written by Peter Selinger 2001-2015
</metadata>
<g transform="translate(0.000000,148.000000) scale(0.100000,-0.100000)"
fill="#000000" stroke="none">
<path d="M4901 1315 c-71 -20 -163 -67 -229 -116 -52 -40 -52 -40 -110 -30
-31 5 -147 9 -257 8 l-200 -2 -60 -30 c-77 -39 -109 -83 -102 -142 12 -110
146 -183 333 -183 35 0 64 -2 64 -4 0 -3 -47 -80 -105 -173 -58 -92 -108 -178
-112 -191 -14 -58 53 -68 137 -20 56 32 57 52 0 23 -34 -18 -55 -12 -45 13 13
34 209 344 220 348 7 3 44 4 82 2 l71 -3 -109 -175 c-60 -96 -109 -185 -109
-196 0 -52 70 -56 142 -9 48 32 45 41 -6 20 -66 -28 -56 2 65 197 l114 182
119 18 c210 31 393 82 509 140 183 91 222 240 80 309 -48 24 -68 25 -260 18
-16 -1 -62 2 -103 5 -53 4 -91 2 -129 -9z m168 -14 c11 -7 9 -10 -7 -15 -40
-13 -169 -103 -234 -165 -37 -34 -93 -97 -124 -139 -32 -42 -62 -81 -66 -86
-8 -10 -169 -38 -176 -31 -9 9 117 172 193 250 90 92 155 139 235 172 57 23
152 31 179 14z m254 -2 c95 -49 98 -140 9 -232 -84 -88 -301 -162 -584 -201
-78 -10 -33 12 85 43 127 32 267 92 321 137 48 40 76 93 76 143 0 36 -6 49
-34 77 -19 19 -28 35 -22 38 23 9 128 6 149 -5z m-187 -51 c34 -65 -5 -159
-91 -218 -70 -48 -288 -131 -303 -115 -9 8 127 172 197 237 54 52 160 127 178
128 1 0 10 -14 19 -32z m-861 -107 c-17 -10 -43 -33 -58 -50 -53 -63 -28 -156
56 -210 20 -13 35 -26 33 -28 -8 -8 -152 19 -196 38 -70 30 -102 68 -108 127
-4 43 -1 53 24 81 39 43 93 60 194 61 l85 0 -30 -19z m293 13 l31 -6 -72 -82
c-40 -44 -88 -103 -106 -131 -19 -27 -36 -52 -37 -54 -2 -2 -23 7 -48 19 -107
51 -120 187 -22 234 18 8 43 12 56 9 16 -4 21 -3 16 5 -8 13 126 17 182 6z"/>
<path d="M1360 1120 c-14 -4 -68 -8 -120 -9 -284 -3 -469 -60 -520 -160 -24
-48 -26 -120 -4 -162 21 -42 93 -73 146 -65 46 8 118 42 118 56 0 6 -18 1 -40
-10 -97 -50 -173 -3 -171 106 1 83 37 137 116 170 40 17 359 43 372 31 3 -4
-19 -33 -48 -65 -30 -32 -87 -114 -128 -182 -125 -211 -186 -284 -291 -347
-101 -61 -263 -82 -326 -44 -62 38 -66 127 -8 182 32 30 93 32 123 5 12 -11
24 -17 26 -14 3 3 -9 18 -27 33 -29 25 -38 27 -96 23 -59 -4 -67 -7 -98 -41
-30 -33 -34 -43 -34 -93 0 -48 4 -60 28 -84 85 -84 304 -62 473 49 106 70 181
155 274 312 90 152 148 220 219 256 l50 25 -40 -45 c-49 -56 -80 -118 -134
-272 -54 -154 -81 -207 -137 -266 -49 -52 -126 -89 -188 -89 -19 0 -37 -4 -40
-10 -9 -15 90 -12 164 5 88 21 176 65 258 129 82 64 125 119 223 286 78 132
141 205 208 239 56 29 58 27 17 -14 -46 -47 -84 -124 -138 -281 -54 -158 -76
-203 -130 -261 -52 -57 -105 -84 -179 -90 -65 -6 -79 -23 -19 -23 50 0 148 30
204 63 52 31 114 96 151 160 15 25 49 106 75 180 77 214 116 273 201 298 70
21 46 32 -57 27 -175 -9 -247 -65 -400 -314 -112 -182 -171 -256 -243 -305
-76 -53 -84 -48 -23 12 63 63 109 148 162 303 67 193 108 252 191 277 22 7 40
16 40 21 0 10 -166 9 -200 -2z"/>
<path d="M1923 751 c-137 -47 -247 -179 -229 -274 10 -53 38 -72 105 -72 168
0 355 198 300 318 -22 49 -87 59 -176 28z m105 -45 c5 -54 -37 -134 -111 -211
-87 -90 -147 -101 -147 -28 1 106 147 289 225 281 27 -3 30 -7 33 -42z"/>
<path d="M3357 747 c-27 -21 -28 -21 -58 -3 -24 14 -42 17 -76 12 -95 -13
-237 -116 -282 -204 -25 -49 -27 -114 -5 -136 28 -28 100 -14 161 30 38 29 43
29 36 5 -2 -10 3 -26 13 -36 24 -23 73 -14 133 24 49 33 48 38 -6 19 -64 -23
-58 0 41 160 52 84 89 152 83 151 -7 0 -24 -10 -40 -22z m-103 -13 c9 -3 16
-16 16 -28 0 -34 -70 -143 -126 -196 -79 -75 -134 -81 -134 -15 0 71 68 166
154 216 53 30 64 33 90 23z"/>
<path d="M5067 749 c-27 -20 -29 -20 -64 -4 -44 21 -97 15 -170 -21 -147 -71
-258 -250 -193 -309 27 -25 89 -15 151 24 l49 30 0 -23 c0 -34 24 -50 62 -42
38 8 118 53 118 67 0 6 -10 3 -22 -5 -27 -19 -68 -21 -68 -3 0 7 36 71 80 141
114 182 117 189 57 145z m-97 -24 c15 -19 6 -47 -39 -115 -74 -114 -168 -182
-206 -150 -64 53 110 277 216 280 9 0 22 -7 29 -15z"/>
<path d="M2310 744 c-36 -16 -80 -52 -80 -65 0 -4 17 -1 37 7 30 13 44 14 80
3 24 -6 46 -15 48 -19 2 -4 -70 -60 -160 -124 -91 -65 -165 -122 -165 -126 0
-5 14 -4 30 2 24 8 46 6 95 -6 110 -27 150 -19 209 43 35 37 28 52 -10 22 -31
-24 -68 -26 -139 -8 l-50 13 183 130 c100 71 178 130 173 132 -6 2 -19 -2 -30
-8 -16 -8 -36 -7 -80 5 -73 19 -96 18 -141 -1z"/>
<path d="M2710 744 c-36 -16 -80 -52 -80 -65 0 -4 17 -1 37 7 30 13 44 14 80
3 24 -6 46 -15 48 -19 2 -4 -70 -60 -160 -124 -91 -65 -165 -122 -165 -126 0
-5 14 -4 30 2 24 8 46 6 95 -6 110 -27 150 -19 209 43 35 37 28 52 -10 22 -31
-24 -68 -26 -139 -8 l-50 13 183 130 c100 71 178 130 173 132 -6 2 -19 -2 -30
-8 -16 -8 -36 -7 -80 5 -73 19 -96 18 -141 -1z"/>
<path d="M3489 732 c-29 -15 -54 -33 -57 -40 -3 -10 3 -10 26 2 37 19 62 21
62 3 0 -7 -26 -55 -59 -107 -66 -107 -79 -146 -57 -175 8 -11 16 -18 19 -15 2
3 42 63 89 135 93 143 143 195 187 195 34 0 43 -17 34 -63 l-6 -32 37 34 c42
40 44 54 14 75 -27 20 -70 20 -123 1 -34 -12 -41 -12 -55 0 -24 22 -51 18
-111 -13z"/>
<path d="M3973 749 c-62 -18 -156 -92 -199 -156 -94 -139 -50 -217 106 -185
62 13 200 78 200 94 0 6 -7 7 -17 2 -119 -51 -210 -66 -238 -38 -14 15 -14 58
0 73 2 2 38 10 79 17 140 27 216 76 216 140 0 57 -60 78 -147 53z m72 -39 c10
-32 -25 -79 -81 -106 -56 -27 -124 -42 -124 -27 0 14 52 83 81 109 54 48 113
60 124 24z"/>
</g>
</svg>
